<mxfile host="app.diagrams.net" modified="2023-07-12T06:02:17.229Z" agent="Mozilla/5.0 (X11; Linux x86_64) AppleWebKit/537.36 (KHTML, like Gecko) Chrome/114.0.0.0 Safari/537.36" etag="eURFj2heQWLLkJWzGI_V" version="21.6.1" type="google">
  <diagram name="Page-1" id="Fj_TykIYIW2eTKfNjTPK">
    <mxGraphModel grid="1" page="1" gridSize="10" guides="1" tooltips="1" connect="1" arrows="1" fold="1" pageScale="1" pageWidth="827" pageHeight="1169" math="0" shadow="0">
      <root>
        <mxCell id="0" />
        <mxCell id="1" parent="0" />
        <mxCell id="C80B-kKx-FUJXn9aEN4--11" value="users" style="shape=table;startSize=30;container=1;collapsible=0;childLayout=tableLayout;fontStyle=1" vertex="1" parent="1">
          <mxGeometry x="354" y="20" width="86" height="170" as="geometry" />
        </mxCell>
        <mxCell id="C80B-kKx-FUJXn9aEN4--12" value="" style="shape=tableRow;horizontal=0;startSize=0;swimlaneHead=0;swimlaneBody=0;strokeColor=inherit;top=0;left=0;bottom=0;right=0;collapsible=0;dropTarget=0;fillColor=none;points=[[0,0.5],[1,0.5]];portConstraint=eastwest;" vertex="1" parent="C80B-kKx-FUJXn9aEN4--11">
          <mxGeometry y="30" width="86" height="47" as="geometry" />
        </mxCell>
        <mxCell id="C80B-kKx-FUJXn9aEN4--13" value="user_id" style="shape=partialRectangle;html=1;whiteSpace=wrap;connectable=0;strokeColor=#b85450;overflow=hidden;fillColor=#f8cecc;top=0;left=0;bottom=0;right=0;pointerEvents=1;" vertex="1" parent="C80B-kKx-FUJXn9aEN4--12">
          <mxGeometry width="86" height="47" as="geometry">
            <mxRectangle width="86" height="47" as="alternateBounds" />
          </mxGeometry>
        </mxCell>
        <mxCell id="C80B-kKx-FUJXn9aEN4--14" value="" style="shape=tableRow;horizontal=0;startSize=0;swimlaneHead=0;swimlaneBody=0;strokeColor=inherit;top=0;left=0;bottom=0;right=0;collapsible=0;dropTarget=0;fillColor=none;points=[[0,0.5],[1,0.5]];portConstraint=eastwest;" vertex="1" parent="C80B-kKx-FUJXn9aEN4--11">
          <mxGeometry y="77" width="86" height="46" as="geometry" />
        </mxCell>
        <mxCell id="C80B-kKx-FUJXn9aEN4--15" value="username" style="shape=partialRectangle;html=1;whiteSpace=wrap;connectable=0;strokeColor=inherit;overflow=hidden;fillColor=none;top=0;left=0;bottom=0;right=0;pointerEvents=1;" vertex="1" parent="C80B-kKx-FUJXn9aEN4--14">
          <mxGeometry width="86" height="46" as="geometry">
            <mxRectangle width="86" height="46" as="alternateBounds" />
          </mxGeometry>
        </mxCell>
        <mxCell id="C80B-kKx-FUJXn9aEN4--16" value="" style="shape=tableRow;horizontal=0;startSize=0;swimlaneHead=0;swimlaneBody=0;strokeColor=inherit;top=0;left=0;bottom=0;right=0;collapsible=0;dropTarget=0;fillColor=none;points=[[0,0.5],[1,0.5]];portConstraint=eastwest;" vertex="1" parent="C80B-kKx-FUJXn9aEN4--11">
          <mxGeometry y="123" width="86" height="47" as="geometry" />
        </mxCell>
        <mxCell id="C80B-kKx-FUJXn9aEN4--17" value="password&lt;table&gt;&lt;tbody&gt;&lt;tr&gt;&lt;td&gt;&lt;br&gt;&lt;/td&gt;&lt;/tr&gt;&lt;tr&gt;&lt;td&gt;&lt;br&gt;&lt;/td&gt;&lt;/tr&gt;&lt;tr&gt;&lt;td&gt;&lt;br&gt;&lt;/td&gt;&lt;/tr&gt;&lt;tr&gt;&lt;td&gt;&lt;br&gt;&lt;/td&gt;&lt;/tr&gt;&lt;tr&gt;&lt;td&gt;&lt;br&gt;&lt;/td&gt;&lt;/tr&gt;&lt;/tbody&gt;&lt;/table&gt;" style="shape=partialRectangle;html=1;whiteSpace=wrap;connectable=0;strokeColor=inherit;overflow=hidden;fillColor=none;top=0;left=0;bottom=0;right=0;pointerEvents=1;" vertex="1" parent="C80B-kKx-FUJXn9aEN4--16">
          <mxGeometry width="86" height="47" as="geometry">
            <mxRectangle width="86" height="47" as="alternateBounds" />
          </mxGeometry>
        </mxCell>
        <mxCell id="C80B-kKx-FUJXn9aEN4--24" value="comments" style="shape=table;startSize=30;container=1;collapsible=0;childLayout=tableLayout;fontStyle=1" vertex="1" parent="1">
          <mxGeometry x="70" y="90" width="130" height="350" as="geometry" />
        </mxCell>
        <mxCell id="C80B-kKx-FUJXn9aEN4--25" value="" style="shape=tableRow;horizontal=0;startSize=0;swimlaneHead=0;swimlaneBody=0;strokeColor=#b85450;top=0;left=0;bottom=0;right=0;collapsible=0;dropTarget=0;fillColor=#f8cecc;points=[[0,0.5],[1,0.5]];portConstraint=eastwest;" vertex="1" parent="C80B-kKx-FUJXn9aEN4--24">
          <mxGeometry y="30" width="130" height="40" as="geometry" />
        </mxCell>
        <mxCell id="C80B-kKx-FUJXn9aEN4--26" value="comment_id" style="shape=partialRectangle;html=1;whiteSpace=wrap;connectable=0;strokeColor=inherit;overflow=hidden;fillColor=none;top=0;left=0;bottom=0;right=0;pointerEvents=1;" vertex="1" parent="C80B-kKx-FUJXn9aEN4--25">
          <mxGeometry width="130" height="40" as="geometry">
            <mxRectangle width="130" height="40" as="alternateBounds" />
          </mxGeometry>
        </mxCell>
        <mxCell id="C80B-kKx-FUJXn9aEN4--27" value="" style="shape=tableRow;horizontal=0;startSize=0;swimlaneHead=0;swimlaneBody=0;strokeColor=inherit;top=0;left=0;bottom=0;right=0;collapsible=0;dropTarget=0;fillColor=none;points=[[0,0.5],[1,0.5]];portConstraint=eastwest;" vertex="1" parent="C80B-kKx-FUJXn9aEN4--24">
          <mxGeometry y="70" width="130" height="40" as="geometry" />
        </mxCell>
        <mxCell id="C80B-kKx-FUJXn9aEN4--28" value="user_id" style="shape=partialRectangle;html=1;whiteSpace=wrap;connectable=0;strokeColor=#6c8ebf;overflow=hidden;fillColor=#dae8fc;top=0;left=0;bottom=0;right=0;pointerEvents=1;" vertex="1" parent="C80B-kKx-FUJXn9aEN4--27">
          <mxGeometry width="130" height="40" as="geometry">
            <mxRectangle width="130" height="40" as="alternateBounds" />
          </mxGeometry>
        </mxCell>
        <mxCell id="C80B-kKx-FUJXn9aEN4--29" value="" style="shape=tableRow;horizontal=0;startSize=0;swimlaneHead=0;swimlaneBody=0;strokeColor=inherit;top=0;left=0;bottom=0;right=0;collapsible=0;dropTarget=0;fillColor=none;points=[[0,0.5],[1,0.5]];portConstraint=eastwest;" vertex="1" parent="C80B-kKx-FUJXn9aEN4--24">
          <mxGeometry y="110" width="130" height="40" as="geometry" />
        </mxCell>
        <mxCell id="C80B-kKx-FUJXn9aEN4--30" value="post_id" style="shape=partialRectangle;html=1;whiteSpace=wrap;connectable=0;strokeColor=#d6b656;overflow=hidden;fillColor=#fff2cc;top=0;left=0;bottom=0;right=0;pointerEvents=1;" vertex="1" parent="C80B-kKx-FUJXn9aEN4--29">
          <mxGeometry width="130" height="40" as="geometry">
            <mxRectangle width="130" height="40" as="alternateBounds" />
          </mxGeometry>
        </mxCell>
        <mxCell id="C80B-kKx-FUJXn9aEN4--31" value="" style="shape=tableRow;horizontal=0;startSize=0;swimlaneHead=0;swimlaneBody=0;strokeColor=inherit;top=0;left=0;bottom=0;right=0;collapsible=0;dropTarget=0;fillColor=none;points=[[0,0.5],[1,0.5]];portConstraint=eastwest;" vertex="1" parent="C80B-kKx-FUJXn9aEN4--24">
          <mxGeometry y="150" width="130" height="40" as="geometry" />
        </mxCell>
        <mxCell id="C80B-kKx-FUJXn9aEN4--32" value="c_content" style="shape=partialRectangle;html=1;whiteSpace=wrap;connectable=0;strokeColor=inherit;overflow=hidden;fillColor=none;top=0;left=0;bottom=0;right=0;pointerEvents=1;" vertex="1" parent="C80B-kKx-FUJXn9aEN4--31">
          <mxGeometry width="130" height="40" as="geometry">
            <mxRectangle width="130" height="40" as="alternateBounds" />
          </mxGeometry>
        </mxCell>
        <mxCell id="3DiP7d0eMVGVt6MRuFkm-5" value="" style="shape=tableRow;horizontal=0;startSize=0;swimlaneHead=0;swimlaneBody=0;strokeColor=inherit;top=0;left=0;bottom=0;right=0;collapsible=0;dropTarget=0;fillColor=none;points=[[0,0.5],[1,0.5]];portConstraint=eastwest;" vertex="1" parent="C80B-kKx-FUJXn9aEN4--24">
          <mxGeometry y="190" width="130" height="40" as="geometry" />
        </mxCell>
        <mxCell id="3DiP7d0eMVGVt6MRuFkm-6" value="like_count" style="shape=partialRectangle;html=1;whiteSpace=wrap;connectable=0;strokeColor=inherit;overflow=hidden;fillColor=none;top=0;left=0;bottom=0;right=0;pointerEvents=1;" vertex="1" parent="3DiP7d0eMVGVt6MRuFkm-5">
          <mxGeometry width="130" height="40" as="geometry">
            <mxRectangle width="130" height="40" as="alternateBounds" />
          </mxGeometry>
        </mxCell>
        <mxCell id="yr2vT68bQ3zHwlUV2fQY-1" value="" style="shape=tableRow;horizontal=0;startSize=0;swimlaneHead=0;swimlaneBody=0;strokeColor=inherit;top=0;left=0;bottom=0;right=0;collapsible=0;dropTarget=0;fillColor=none;points=[[0,0.5],[1,0.5]];portConstraint=eastwest;" vertex="1" parent="C80B-kKx-FUJXn9aEN4--24">
          <mxGeometry y="230" width="130" height="40" as="geometry" />
        </mxCell>
        <mxCell id="yr2vT68bQ3zHwlUV2fQY-2" value="reply_count" style="shape=partialRectangle;html=1;whiteSpace=wrap;connectable=0;strokeColor=inherit;overflow=hidden;fillColor=none;top=0;left=0;bottom=0;right=0;pointerEvents=1;" vertex="1" parent="yr2vT68bQ3zHwlUV2fQY-1">
          <mxGeometry width="130" height="40" as="geometry">
            <mxRectangle width="130" height="40" as="alternateBounds" />
          </mxGeometry>
        </mxCell>
        <mxCell id="3DiP7d0eMVGVt6MRuFkm-7" value="" style="shape=tableRow;horizontal=0;startSize=0;swimlaneHead=0;swimlaneBody=0;strokeColor=inherit;top=0;left=0;bottom=0;right=0;collapsible=0;dropTarget=0;fillColor=none;points=[[0,0.5],[1,0.5]];portConstraint=eastwest;" vertex="1" parent="C80B-kKx-FUJXn9aEN4--24">
          <mxGeometry y="270" width="130" height="40" as="geometry" />
        </mxCell>
        <mxCell id="3DiP7d0eMVGVt6MRuFkm-8" value="comment_count" style="shape=partialRectangle;html=1;whiteSpace=wrap;connectable=0;strokeColor=inherit;overflow=hidden;fillColor=none;top=0;left=0;bottom=0;right=0;pointerEvents=1;" vertex="1" parent="3DiP7d0eMVGVt6MRuFkm-7">
          <mxGeometry width="130" height="40" as="geometry">
            <mxRectangle width="130" height="40" as="alternateBounds" />
          </mxGeometry>
        </mxCell>
        <mxCell id="C80B-kKx-FUJXn9aEN4--33" value="" style="shape=tableRow;horizontal=0;startSize=0;swimlaneHead=0;swimlaneBody=0;strokeColor=inherit;top=0;left=0;bottom=0;right=0;collapsible=0;dropTarget=0;fillColor=none;points=[[0,0.5],[1,0.5]];portConstraint=eastwest;" vertex="1" parent="C80B-kKx-FUJXn9aEN4--24">
          <mxGeometry y="310" width="130" height="40" as="geometry" />
        </mxCell>
        <mxCell id="C80B-kKx-FUJXn9aEN4--34" value="c_date" style="shape=partialRectangle;html=1;whiteSpace=wrap;connectable=0;strokeColor=inherit;overflow=hidden;fillColor=none;top=0;left=0;bottom=0;right=0;pointerEvents=1;" vertex="1" parent="C80B-kKx-FUJXn9aEN4--33">
          <mxGeometry width="130" height="40" as="geometry">
            <mxRectangle width="130" height="40" as="alternateBounds" />
          </mxGeometry>
        </mxCell>
        <mxCell id="C80B-kKx-FUJXn9aEN4--35" value="posts" style="shape=table;startSize=30;container=1;collapsible=0;childLayout=tableLayout;fontStyle=1" vertex="1" parent="1">
          <mxGeometry x="590" y="60" width="120" height="190" as="geometry" />
        </mxCell>
        <mxCell id="C80B-kKx-FUJXn9aEN4--36" value="" style="shape=tableRow;horizontal=0;startSize=0;swimlaneHead=0;swimlaneBody=0;strokeColor=inherit;top=0;left=0;bottom=0;right=0;collapsible=0;dropTarget=0;fillColor=none;points=[[0,0.5],[1,0.5]];portConstraint=eastwest;" vertex="1" parent="C80B-kKx-FUJXn9aEN4--35">
          <mxGeometry y="30" width="120" height="40" as="geometry" />
        </mxCell>
        <mxCell id="C80B-kKx-FUJXn9aEN4--37" value="post_id" style="shape=partialRectangle;html=1;whiteSpace=wrap;connectable=0;strokeColor=#b85450;overflow=hidden;fillColor=#f8cecc;top=0;left=0;bottom=0;right=0;pointerEvents=1;" vertex="1" parent="C80B-kKx-FUJXn9aEN4--36">
          <mxGeometry width="120" height="40" as="geometry">
            <mxRectangle width="120" height="40" as="alternateBounds" />
          </mxGeometry>
        </mxCell>
        <mxCell id="C80B-kKx-FUJXn9aEN4--38" value="" style="shape=tableRow;horizontal=0;startSize=0;swimlaneHead=0;swimlaneBody=0;strokeColor=inherit;top=0;left=0;bottom=0;right=0;collapsible=0;dropTarget=0;fillColor=none;points=[[0,0.5],[1,0.5]];portConstraint=eastwest;" vertex="1" parent="C80B-kKx-FUJXn9aEN4--35">
          <mxGeometry y="70" width="120" height="40" as="geometry" />
        </mxCell>
        <mxCell id="C80B-kKx-FUJXn9aEN4--39" value="user_id" style="shape=partialRectangle;html=1;whiteSpace=wrap;connectable=0;strokeColor=#6c8ebf;overflow=hidden;fillColor=#dae8fc;top=0;left=0;bottom=0;right=0;pointerEvents=1;" vertex="1" parent="C80B-kKx-FUJXn9aEN4--38">
          <mxGeometry width="120" height="40" as="geometry">
            <mxRectangle width="120" height="40" as="alternateBounds" />
          </mxGeometry>
        </mxCell>
        <mxCell id="C80B-kKx-FUJXn9aEN4--40" value="" style="shape=tableRow;horizontal=0;startSize=0;swimlaneHead=0;swimlaneBody=0;strokeColor=inherit;top=0;left=0;bottom=0;right=0;collapsible=0;dropTarget=0;fillColor=none;points=[[0,0.5],[1,0.5]];portConstraint=eastwest;" vertex="1" parent="C80B-kKx-FUJXn9aEN4--35">
          <mxGeometry y="110" width="120" height="40" as="geometry" />
        </mxCell>
        <mxCell id="C80B-kKx-FUJXn9aEN4--41" value="p_content" style="shape=partialRectangle;html=1;whiteSpace=wrap;connectable=0;strokeColor=inherit;overflow=hidden;fillColor=none;top=0;left=0;bottom=0;right=0;pointerEvents=1;" vertex="1" parent="C80B-kKx-FUJXn9aEN4--40">
          <mxGeometry width="120" height="40" as="geometry">
            <mxRectangle width="120" height="40" as="alternateBounds" />
          </mxGeometry>
        </mxCell>
        <mxCell id="C80B-kKx-FUJXn9aEN4--42" value="" style="shape=tableRow;horizontal=0;startSize=0;swimlaneHead=0;swimlaneBody=0;strokeColor=inherit;top=0;left=0;bottom=0;right=0;collapsible=0;dropTarget=0;fillColor=none;points=[[0,0.5],[1,0.5]];portConstraint=eastwest;" vertex="1" parent="C80B-kKx-FUJXn9aEN4--35">
          <mxGeometry y="150" width="120" height="40" as="geometry" />
        </mxCell>
        <mxCell id="C80B-kKx-FUJXn9aEN4--43" value="p_date" style="shape=partialRectangle;html=1;whiteSpace=wrap;connectable=0;strokeColor=inherit;overflow=hidden;fillColor=none;top=0;left=0;bottom=0;right=0;pointerEvents=1;" vertex="1" parent="C80B-kKx-FUJXn9aEN4--42">
          <mxGeometry width="120" height="40" as="geometry">
            <mxRectangle width="120" height="40" as="alternateBounds" />
          </mxGeometry>
        </mxCell>
        <mxCell id="C80B-kKx-FUJXn9aEN4--90" style="edgeStyle=orthogonalEdgeStyle;rounded=0;orthogonalLoop=1;jettySize=auto;html=1;exitX=0.5;exitY=0;exitDx=0;exitDy=0;entryX=0.028;entryY=0.352;entryDx=0;entryDy=0;entryPerimeter=0;endArrow=ERmandOne;endFill=0;" edge="1" parent="1" source="C80B-kKx-FUJXn9aEN4--55" target="C80B-kKx-FUJXn9aEN4--14">
          <mxGeometry relative="1" as="geometry" />
        </mxCell>
        <mxCell id="C80B-kKx-FUJXn9aEN4--55" value="replies" style="shape=table;startSize=30;container=1;collapsible=0;childLayout=tableLayout;fontStyle=1" vertex="1" parent="1">
          <mxGeometry x="260" y="340" width="120" height="235" as="geometry" />
        </mxCell>
        <mxCell id="C80B-kKx-FUJXn9aEN4--56" value="" style="shape=tableRow;horizontal=0;startSize=0;swimlaneHead=0;swimlaneBody=0;strokeColor=inherit;top=0;left=0;bottom=0;right=0;collapsible=0;dropTarget=0;fillColor=none;points=[[0,0.5],[1,0.5]];portConstraint=eastwest;" vertex="1" parent="C80B-kKx-FUJXn9aEN4--55">
          <mxGeometry y="30" width="120" height="41" as="geometry" />
        </mxCell>
        <mxCell id="C80B-kKx-FUJXn9aEN4--57" value="reply_id" style="shape=partialRectangle;html=1;whiteSpace=wrap;connectable=0;strokeColor=#b85450;overflow=hidden;fillColor=#f8cecc;top=0;left=0;bottom=0;right=0;pointerEvents=1;" vertex="1" parent="C80B-kKx-FUJXn9aEN4--56">
          <mxGeometry width="120" height="41" as="geometry">
            <mxRectangle width="120" height="41" as="alternateBounds" />
          </mxGeometry>
        </mxCell>
        <mxCell id="C80B-kKx-FUJXn9aEN4--58" value="" style="shape=tableRow;horizontal=0;startSize=0;swimlaneHead=0;swimlaneBody=0;strokeColor=inherit;top=0;left=0;bottom=0;right=0;collapsible=0;dropTarget=0;fillColor=none;points=[[0,0.5],[1,0.5]];portConstraint=eastwest;" vertex="1" parent="C80B-kKx-FUJXn9aEN4--55">
          <mxGeometry y="71" width="120" height="41" as="geometry" />
        </mxCell>
        <mxCell id="C80B-kKx-FUJXn9aEN4--59" value="user_id" style="shape=partialRectangle;html=1;whiteSpace=wrap;connectable=0;strokeColor=#6c8ebf;overflow=hidden;fillColor=#dae8fc;top=0;left=0;bottom=0;right=0;pointerEvents=1;" vertex="1" parent="C80B-kKx-FUJXn9aEN4--58">
          <mxGeometry width="120" height="41" as="geometry">
            <mxRectangle width="120" height="41" as="alternateBounds" />
          </mxGeometry>
        </mxCell>
        <mxCell id="C80B-kKx-FUJXn9aEN4--60" value="" style="shape=tableRow;horizontal=0;startSize=0;swimlaneHead=0;swimlaneBody=0;strokeColor=inherit;top=0;left=0;bottom=0;right=0;collapsible=0;dropTarget=0;fillColor=none;points=[[0,0.5],[1,0.5]];portConstraint=eastwest;" vertex="1" parent="C80B-kKx-FUJXn9aEN4--55">
          <mxGeometry y="112" width="120" height="41" as="geometry" />
        </mxCell>
        <mxCell id="C80B-kKx-FUJXn9aEN4--61" value="comment_id" style="shape=partialRectangle;html=1;whiteSpace=wrap;connectable=0;strokeColor=#82b366;overflow=hidden;fillColor=#d5e8d4;top=0;left=0;bottom=0;right=0;pointerEvents=1;" vertex="1" parent="C80B-kKx-FUJXn9aEN4--60">
          <mxGeometry width="120" height="41" as="geometry">
            <mxRectangle width="120" height="41" as="alternateBounds" />
          </mxGeometry>
        </mxCell>
        <mxCell id="C80B-kKx-FUJXn9aEN4--62" value="" style="shape=tableRow;horizontal=0;startSize=0;swimlaneHead=0;swimlaneBody=0;strokeColor=inherit;top=0;left=0;bottom=0;right=0;collapsible=0;dropTarget=0;fillColor=none;points=[[0,0.5],[1,0.5]];portConstraint=eastwest;" vertex="1" parent="C80B-kKx-FUJXn9aEN4--55">
          <mxGeometry y="153" width="120" height="41" as="geometry" />
        </mxCell>
        <mxCell id="C80B-kKx-FUJXn9aEN4--63" value="r_content" style="shape=partialRectangle;html=1;whiteSpace=wrap;connectable=0;strokeColor=inherit;overflow=hidden;fillColor=none;top=0;left=0;bottom=0;right=0;pointerEvents=1;" vertex="1" parent="C80B-kKx-FUJXn9aEN4--62">
          <mxGeometry width="120" height="41" as="geometry">
            <mxRectangle width="120" height="41" as="alternateBounds" />
          </mxGeometry>
        </mxCell>
        <mxCell id="C80B-kKx-FUJXn9aEN4--64" value="" style="shape=tableRow;horizontal=0;startSize=0;swimlaneHead=0;swimlaneBody=0;strokeColor=inherit;top=0;left=0;bottom=0;right=0;collapsible=0;dropTarget=0;fillColor=none;points=[[0,0.5],[1,0.5]];portConstraint=eastwest;" vertex="1" parent="C80B-kKx-FUJXn9aEN4--55">
          <mxGeometry y="194" width="120" height="41" as="geometry" />
        </mxCell>
        <mxCell id="C80B-kKx-FUJXn9aEN4--65" value="r_date" style="shape=partialRectangle;html=1;whiteSpace=wrap;connectable=0;strokeColor=inherit;overflow=hidden;fillColor=none;top=0;left=0;bottom=0;right=0;pointerEvents=1;" vertex="1" parent="C80B-kKx-FUJXn9aEN4--64">
          <mxGeometry width="120" height="41" as="geometry">
            <mxRectangle width="120" height="41" as="alternateBounds" />
          </mxGeometry>
        </mxCell>
        <mxCell id="C80B-kKx-FUJXn9aEN4--66" value="likes" style="shape=table;startSize=30;container=1;collapsible=0;childLayout=tableLayout;fontStyle=1" vertex="1" parent="1">
          <mxGeometry x="530" y="350" width="160" height="195" as="geometry" />
        </mxCell>
        <mxCell id="C80B-kKx-FUJXn9aEN4--67" value="" style="shape=tableRow;horizontal=0;startSize=0;swimlaneHead=0;swimlaneBody=0;strokeColor=inherit;top=0;left=0;bottom=0;right=0;collapsible=0;dropTarget=0;fillColor=none;points=[[0,0.5],[1,0.5]];portConstraint=eastwest;" vertex="1" parent="C80B-kKx-FUJXn9aEN4--66">
          <mxGeometry y="30" width="160" height="41" as="geometry" />
        </mxCell>
        <mxCell id="C80B-kKx-FUJXn9aEN4--68" value="like_id" style="shape=partialRectangle;html=1;whiteSpace=wrap;connectable=0;strokeColor=#b85450;overflow=hidden;fillColor=#f8cecc;top=0;left=0;bottom=0;right=0;pointerEvents=1;" vertex="1" parent="C80B-kKx-FUJXn9aEN4--67">
          <mxGeometry width="160" height="41" as="geometry">
            <mxRectangle width="160" height="41" as="alternateBounds" />
          </mxGeometry>
        </mxCell>
        <mxCell id="C80B-kKx-FUJXn9aEN4--69" value="" style="shape=tableRow;horizontal=0;startSize=0;swimlaneHead=0;swimlaneBody=0;strokeColor=inherit;top=0;left=0;bottom=0;right=0;collapsible=0;dropTarget=0;fillColor=none;points=[[0,0.5],[1,0.5]];portConstraint=eastwest;" vertex="1" parent="C80B-kKx-FUJXn9aEN4--66">
          <mxGeometry y="71" width="160" height="42" as="geometry" />
        </mxCell>
        <mxCell id="C80B-kKx-FUJXn9aEN4--70" value="user_id" style="shape=partialRectangle;html=1;whiteSpace=wrap;connectable=0;strokeColor=#6c8ebf;overflow=hidden;fillColor=#dae8fc;top=0;left=0;bottom=0;right=0;pointerEvents=1;" vertex="1" parent="C80B-kKx-FUJXn9aEN4--69">
          <mxGeometry width="160" height="42" as="geometry">
            <mxRectangle width="160" height="42" as="alternateBounds" />
          </mxGeometry>
        </mxCell>
        <mxCell id="C80B-kKx-FUJXn9aEN4--71" value="" style="shape=tableRow;horizontal=0;startSize=0;swimlaneHead=0;swimlaneBody=0;strokeColor=inherit;top=0;left=0;bottom=0;right=0;collapsible=0;dropTarget=0;fillColor=none;points=[[0,0.5],[1,0.5]];portConstraint=eastwest;" vertex="1" parent="C80B-kKx-FUJXn9aEN4--66">
          <mxGeometry y="113" width="160" height="41" as="geometry" />
        </mxCell>
        <mxCell id="C80B-kKx-FUJXn9aEN4--72" value="comment_id" style="shape=partialRectangle;html=1;whiteSpace=wrap;connectable=0;strokeColor=#82b366;overflow=hidden;fillColor=#d5e8d4;top=0;left=0;bottom=0;right=0;pointerEvents=1;" vertex="1" parent="C80B-kKx-FUJXn9aEN4--71">
          <mxGeometry width="160" height="41" as="geometry">
            <mxRectangle width="160" height="41" as="alternateBounds" />
          </mxGeometry>
        </mxCell>
        <mxCell id="C80B-kKx-FUJXn9aEN4--73" value="" style="shape=tableRow;horizontal=0;startSize=0;swimlaneHead=0;swimlaneBody=0;strokeColor=inherit;top=0;left=0;bottom=0;right=0;collapsible=0;dropTarget=0;fillColor=none;points=[[0,0.5],[1,0.5]];portConstraint=eastwest;" vertex="1" parent="C80B-kKx-FUJXn9aEN4--66">
          <mxGeometry y="154" width="160" height="41" as="geometry" />
        </mxCell>
        <mxCell id="C80B-kKx-FUJXn9aEN4--74" value="like_date" style="shape=partialRectangle;html=1;whiteSpace=wrap;connectable=0;strokeColor=inherit;overflow=hidden;fillColor=none;top=0;left=0;bottom=0;right=0;pointerEvents=1;" vertex="1" parent="C80B-kKx-FUJXn9aEN4--73">
          <mxGeometry width="160" height="41" as="geometry">
            <mxRectangle width="160" height="41" as="alternateBounds" />
          </mxGeometry>
        </mxCell>
        <mxCell id="C80B-kKx-FUJXn9aEN4--81" style="edgeStyle=orthogonalEdgeStyle;rounded=0;orthogonalLoop=1;jettySize=auto;html=1;exitX=1;exitY=0.5;exitDx=0;exitDy=0;entryX=0;entryY=0.5;entryDx=0;entryDy=0;endArrow=ERoneToMany;endFill=0;startArrow=ERmandOne;startFill=0;" edge="1" parent="1" source="C80B-kKx-FUJXn9aEN4--12" target="C80B-kKx-FUJXn9aEN4--38">
          <mxGeometry relative="1" as="geometry" />
        </mxCell>
        <mxCell id="C80B-kKx-FUJXn9aEN4--82" style="edgeStyle=orthogonalEdgeStyle;rounded=0;orthogonalLoop=1;jettySize=auto;html=1;exitX=0;exitY=0.5;exitDx=0;exitDy=0;entryX=1;entryY=0.5;entryDx=0;entryDy=0;endArrow=ERoneToMany;endFill=0;startArrow=ERmandOne;startFill=0;" edge="1" parent="1" source="C80B-kKx-FUJXn9aEN4--12" target="C80B-kKx-FUJXn9aEN4--27">
          <mxGeometry relative="1" as="geometry" />
        </mxCell>
        <mxCell id="C80B-kKx-FUJXn9aEN4--83" style="edgeStyle=orthogonalEdgeStyle;rounded=0;orthogonalLoop=1;jettySize=auto;html=1;exitX=1;exitY=0.5;exitDx=0;exitDy=0;entryX=0;entryY=0.5;entryDx=0;entryDy=0;endArrow=ERoneToMany;endFill=0;" edge="1" parent="1" source="C80B-kKx-FUJXn9aEN4--12" target="C80B-kKx-FUJXn9aEN4--69">
          <mxGeometry relative="1" as="geometry" />
        </mxCell>
        <mxCell id="C80B-kKx-FUJXn9aEN4--84" style="edgeStyle=orthogonalEdgeStyle;rounded=0;orthogonalLoop=1;jettySize=auto;html=1;exitX=0;exitY=0.5;exitDx=0;exitDy=0;entryX=1;entryY=0.5;entryDx=0;entryDy=0;endArrow=ERoneToMany;endFill=0;startArrow=ERmandOne;startFill=0;" edge="1" parent="1" source="C80B-kKx-FUJXn9aEN4--36" target="C80B-kKx-FUJXn9aEN4--29">
          <mxGeometry relative="1" as="geometry">
            <mxPoint x="530" y="220" as="targetPoint" />
            <Array as="points">
              <mxPoint x="560" y="110" />
              <mxPoint x="560" y="220" />
            </Array>
          </mxGeometry>
        </mxCell>
        <mxCell id="C80B-kKx-FUJXn9aEN4--87" style="edgeStyle=orthogonalEdgeStyle;rounded=0;orthogonalLoop=1;jettySize=auto;html=1;exitX=0;exitY=0.5;exitDx=0;exitDy=0;entryX=0.19;entryY=-0.004;entryDx=0;entryDy=0;entryPerimeter=0;endArrow=ERoneToMany;endFill=0;" edge="1" parent="1" source="C80B-kKx-FUJXn9aEN4--36" target="C80B-kKx-FUJXn9aEN4--66">
          <mxGeometry relative="1" as="geometry" />
        </mxCell>
        <mxCell id="C80B-kKx-FUJXn9aEN4--88" style="edgeStyle=orthogonalEdgeStyle;rounded=0;orthogonalLoop=1;jettySize=auto;html=1;exitX=1;exitY=0.5;exitDx=0;exitDy=0;entryX=0.05;entryY=0.004;entryDx=0;entryDy=0;entryPerimeter=0;endArrow=ERoneToMany;endFill=0;startArrow=ERmandOne;startFill=0;" edge="1" parent="1" source="C80B-kKx-FUJXn9aEN4--31" target="C80B-kKx-FUJXn9aEN4--66">
          <mxGeometry relative="1" as="geometry" />
        </mxCell>
        <mxCell id="C80B-kKx-FUJXn9aEN4--89" style="edgeStyle=orthogonalEdgeStyle;rounded=0;orthogonalLoop=1;jettySize=auto;html=1;exitX=1;exitY=0.5;exitDx=0;exitDy=0;entryX=0.5;entryY=0;entryDx=0;entryDy=0;endArrow=ERoneToMany;endFill=0;" edge="1" parent="1" source="C80B-kKx-FUJXn9aEN4--31" target="C80B-kKx-FUJXn9aEN4--55">
          <mxGeometry relative="1" as="geometry" />
        </mxCell>
      </root>
    </mxGraphModel>
  </diagram>
</mxfile>
